<svg xmlns="http://www.w3.org/2000/svg" width="20" height="15" viewBox="0 0 20 15">
    <g fill="#1E8BC3" fill-rule="evenodd">
        <path d="M14.571 13.763c0 .422-.34.762-.762.762H6.191c-.211 0-.401-.085-.54-.223a.761.761 0 0 1 .539-1.3h7.62c.42 0 .762.34.761.761zM16.857 11.477H3.143a.758.758 0 0 1-.762-.762c0-.42.341-.76.762-.761h13.714a.762.762 0 0 1 0 1.523zM5.429 1.574c0-.422.34-.763.762-.762h7.618a.761.761 0 1 1 0 1.523H6.191a.762.762 0 0 1-.762-.761zM3.143 3.86h13.714a.761.761 0 1 1 0 1.523H3.143a.762.762 0 0 1 0-1.524zM.857 7.668c0-.42.34-.761.762-.761h16.762a.761.761 0 1 1 0 1.523H1.619a.758.758 0 0 1-.762-.762z"/>
    </g>
</svg>
